# Blender 4.4.3
# www.blender.org
mtllib six-cubes.mtl
o compress-decompress
v -3.200409 -1.115968 0.768030
v -3.200409 0.884032 0.768030
v -3.200409 -1.115968 -1.231970
v -3.200409 0.884032 -1.231970
v -1.200409 -1.115968 0.768030
v -1.200409 0.884032 0.768030
v -1.200409 -1.115968 -1.231970
v -1.200409 0.884032 -1.231970
v 1.343042 -1.115968 0.768030
v 1.343042 0.884032 0.768030
v 1.343042 -1.115968 -1.231970
v 1.343042 0.884032 -1.231970
v 3.343042 -1.115968 0.768030
v 3.343042 0.884032 0.768030
v 3.343042 -1.115968 -1.231970
v 3.343042 0.884032 -1.231970
vn -0.0000 -0.0000 1.0000
vn -0.0000 1.0000 -0.0000
vn -0.0000 -0.0000 -1.0000
vn -0.0000 -1.0000 -0.0000
vn -1.0000 -0.0000 -0.0000
vn 1.0000 -0.0000 -0.0000
s 0
f 5//1 6//1 1//1
f 1//1 6//1 2//1
f 2//2 6//2 4//2
f 4//2 6//2 8//2
f 4//3 8//3 7//3
f 4//3 7//3 3//3
f 3//4 7//4 1//4
f 1//4 7//4 5//4
f 3//5 1//5 2//5
f 3//5 2//5 4//5
f 11//3 12//3 15//3
f 15//3 12//3 16//3
f 16//2 12//2 14//2
f 14//2 12//2 10//2
f 14//1 10//1 9//1
f 14//1 9//1 13//1
f 13//4 9//4 15//4
f 15//4 9//4 11//4
f 13//6 15//6 16//6
f 13//6 16//6 14//6
o compress-decompress.001
v -3.200409 -1.115968 -3.021921
v -3.200409 0.884032 -3.021921
v -3.200409 -1.115968 -5.021920
v -3.200409 0.884032 -5.021921
v -1.200409 -1.115968 -3.021921
v -1.200409 0.884032 -3.021921
v -1.200409 -1.115968 -5.021920
v -1.200409 0.884032 -5.021921
v 1.343042 -1.115968 -3.021921
v 1.343042 0.884032 -3.021921
v 1.343042 -1.115968 -5.021920
v 1.343042 0.884032 -5.021921
v 3.343042 -1.115968 -3.021921
v 3.343042 0.884032 -3.021921
v 3.343042 -1.115968 -5.021920
v 3.343042 0.884032 -5.021921
vn -0.0000 -0.0000 1.0000
vn -0.0000 1.0000 -0.0000
vn -0.0000 -0.0000 -1.0000
vn -0.0000 -1.0000 -0.0000
vn -1.0000 -0.0000 -0.0000
vn 1.0000 -0.0000 -0.0000
s 0
f 21//7 22//7 17//7
f 17//7 22//7 18//7
f 18//8 22//8 20//8
f 20//8 22//8 24//8
f 20//9 24//9 23//9
f 20//9 23//9 19//9
f 19//10 23//10 17//10
f 17//10 23//10 21//10
f 19//11 17//11 18//11
f 19//11 18//11 20//11
f 27//9 28//9 31//9
f 31//9 28//9 32//9
f 32//8 28//8 30//8
f 30//8 28//8 26//8
f 30//7 26//7 25//7
f 30//7 25//7 29//7
f 29//10 25//10 31//10
f 31//10 25//10 27//10
f 29//12 31//12 32//12
f 29//12 32//12 30//12
o compress-decompress.002
v -3.200409 -1.115968 4.086770
v -3.200409 0.884032 4.086770
v -3.200409 -1.115968 2.086770
v -3.200409 0.884032 2.086770
v -1.200409 -1.115968 4.086770
v -1.200409 0.884032 4.086770
v -1.200409 -1.115968 2.086770
v -1.200409 0.884032 2.086770
v 1.343042 -1.115968 4.086770
v 1.343042 0.884032 4.086770
v 1.343042 -1.115968 2.086770
v 1.343042 0.884032 2.086770
v 3.343042 -1.115968 4.086770
v 3.343042 0.884032 4.086770
v 3.343042 -1.115968 2.086770
v 3.343042 0.884032 2.086770
vn -0.0000 -0.0000 1.0000
vn -0.0000 1.0000 -0.0000
vn -0.0000 -0.0000 -1.0000
vn -0.0000 -1.0000 -0.0000
vn -1.0000 -0.0000 -0.0000
vn 1.0000 -0.0000 -0.0000
s 0
f 37//13 38//13 33//13
f 33//13 38//13 34//13
f 34//14 38//14 36//14
f 36//14 38//14 40//14
f 36//15 40//15 39//15
f 36//15 39//15 35//15
f 35//16 39//16 33//16
f 33//16 39//16 37//16
f 35//17 33//17 34//17
f 35//17 34//17 36//17
f 43//15 44//15 47//15
f 47//15 44//15 48//15
f 48//14 44//14 46//14
f 46//14 44//14 42//14
f 46//13 42//13 41//13
f 46//13 41//13 45//13
f 45//16 41//16 47//16
f 47//16 41//16 43//16
f 45//18 47//18 48//18
f 45//18 48//18 46//18
